# xmcd
#
# Track frame offsets: 
#        150
#        14377
#        39641
#        60099
#        87977
#        104561
#        129826
#        141025
#        163315
#
# Disc length: 2433 seconds
#
# Revision: 1
# Processed by: cddbd v1.5.2PL0 Copyright (c) Steve Scherf et al.
# Submitted via: ExactAudioCopy v0.99pb4
#
DISCID=70097f09
DTITLE=doug macleod - no road back home
DYEAR=1984
DGENRE=Blues
TTITLE0=I'm down
TTITLE1=it's the blues
TTITLE2=ain't no road back home
TTITLE3=the long black train
TTITLE4=your bread ain't done
TTITLE5=nightbird
TTITLE6=you're gonna get what you deserve
TTITLE7=winter must be fallin'
TTITLE8=grease in my gravy
EXTD=
EXTT0=
EXTT1=
EXTT2=
EXTT3=
EXTT4=
EXTT5=
EXTT6=
EXTT7=
EXTT8=
PLAYORDER=
